<?xml version="1.0" encoding="utf-8"?>
<!-- Generator: Adobe Illustrator 27.5.0, SVG Export Plug-In . SVG Version: 6.00 Build 0)  -->
<svg version="1.1" xmlns="http://www.w3.org/2000/svg" xmlns:xlink="http://www.w3.org/1999/xlink" x="0px" y="0px"
	 viewBox="0 0 500 500" style="enable-background:new 0 0 500 500;" xml:space="preserve">
<g id="Background_Complete">
	<g>
		<g>
			<path style="fill:#E0E0E0;" d="M457.234,229.291c-0.014,0.039-0.42-0.11-1.174-0.262c-0.751-0.15-1.872-0.281-3.225-0.085
				c-1.344,0.191-2.93,0.74-4.315,1.889c-1.384,1.128-2.567,2.831-3.04,4.844l-0.014,0.054l-0.185,0.718l-0.276-0.681
				c-0.775-1.915-2.152-3.442-3.645-4.416c-1.497-0.992-3.109-1.41-4.46-1.514c-2.744-0.187-4.349,0.67-4.368,0.556
				c-0.011-0.023,0.365-0.241,1.11-0.482c0.741-0.238,1.871-0.48,3.28-0.414c1.399,0.063,3.097,0.463,4.68,1.481
				c1.578,1,3.035,2.591,3.852,4.609l-0.46,0.037l0.014-0.057c0.501-2.131,1.761-3.914,3.231-5.081
				c1.474-1.19,3.154-1.729,4.552-1.882c1.41-0.158,2.559,0.031,3.313,0.241C456.86,229.059,457.244,229.268,457.234,229.291z"/>
		</g>
	</g>
	<g>
		<g>
			<path style="fill:#E0E0E0;" d="M84.613,170.39c-0.015,0.039-0.42-0.109-1.174-0.262c-0.751-0.15-1.872-0.281-3.225-0.085
				c-1.344,0.191-2.93,0.74-4.315,1.889c-1.384,1.129-2.567,2.831-3.04,4.844l-0.014,0.054l-0.185,0.717l-0.275-0.681
				c-0.775-1.915-2.152-3.442-3.645-4.416c-1.497-0.992-3.109-1.411-4.46-1.514c-2.744-0.187-4.349,0.67-4.369,0.555
				c-0.011-0.023,0.365-0.241,1.11-0.482c0.741-0.238,1.871-0.479,3.281-0.414c1.399,0.063,3.097,0.463,4.68,1.481
				c1.578,1,3.035,2.591,3.852,4.609l-0.46,0.037l0.015-0.057c0.501-2.131,1.761-3.914,3.231-5.08
				c1.474-1.19,3.154-1.729,4.552-1.882c1.41-0.158,2.559,0.031,3.313,0.241C84.239,170.158,84.623,170.368,84.613,170.39z"/>
		</g>
	</g>
	<g>
		<g>
			<path style="fill:#E0E0E0;" d="M343.299,149.739c0.029,0.03-0.377,0.448-1.069,1.234c-0.693,0.785-1.638,1.976-2.624,3.562
				c-1.983,3.132-3.967,8.117-3.899,13.834c0,0.06-0.001,0.119-0.001,0.174l-0.481,0.04c-0.828-5.624-3.779-10.104-6.369-12.695
				c-2.605-2.646-4.722-3.673-4.652-3.771c0.008-0.014,0.139,0.046,0.382,0.174c0.238,0.136,0.608,0.309,1.042,0.601
				c0.891,0.547,2.121,1.448,3.468,2.756c1.349,1.303,2.777,3.056,3.992,5.232c1.218,2.17,2.182,4.781,2.614,7.634l-0.481,0.04
				c0-0.056,0.001-0.117,0.001-0.178c-0.07-5.835,2.01-10.898,4.093-14.023c1.037-1.584,2.033-2.754,2.774-3.507
				c0.357-0.389,0.675-0.651,0.876-0.842C343.174,149.818,343.287,149.727,343.299,149.739z"/>
		</g>
	</g>
	<g>
		<path style="fill:#EBEBEB;" d="M378.154,389.366c-15.751,3.738-27.773,19.438-27.275,35.618
			c-10.086-11.121-28.543-13.39-41.022-5.044c-12.479,8.346-17.43,26.271-11.004,39.839c-14.913-11.639-39.164-8.412-50.514,6.721
			c-2.583-9.527-9.91-17.641-19.126-21.181c-9.215-3.539-20.09-2.415-28.386,2.934c-2.688-16.874-16.306-31.475-32.953-35.33
			c-16.646-3.855-35.297,3.273-45.128,17.248c-8.322-8.106-20.503-12.062-31.999-10.392c-11.497,1.67-22.049,8.927-27.722,19.065
			l10.112,3.263c18.443,3.372,34.667,16.988,41.186,34.566c9.28-10.159,23.654-15.412,37.297-13.63
			c13.643,1.782,26.186,10.55,32.545,22.752l77.849-0.04c19.383-0.161,34.176,0.886,52.094,0
			c7.085-24.926,39.668-47.084,64.163-38.629c4.913-18.884,20.988-34.385,40.013-38.678
			C411.297,394.068,393.729,385.67,378.154,389.366z"/>
		<path style="fill:#EBEBEB;" d="M418.907,408.306c-0.208,0.044-0.415,0.097-0.622,0.144c0.079,0.162,0.163,0.32,0.239,0.483
			L418.907,408.306z"/>
	</g>
	<g>
		<g>
			<path style="fill:#EBEBEB;" d="M217.699,362.07c0.596-4.333-5.519-7.897-10.113-8.268c-2.191-0.177-4.467,0.158-6.543-0.565
				c-4.498-1.568-6.294-7.378-10.683-9.229c-3.281-1.384-7.058-0.152-10.239,1.449c-3.181,1.601-6.324,3.616-9.878,3.843
				c-3.091,0.198-6.448-0.948-9.152,0.562c-2.015,1.125-3.071,3.447-4.928,4.817c-1.817,1.34-4.188,1.624-6.442,1.747
				c-2.255,0.123-4.589,0.145-6.642,1.085c-2.053,0.94-3.751,3.111-3.325,5.328L217.699,362.07z"/>
		</g>
	</g>
	<g>
		<g>
			<path style="fill:#EBEBEB;" d="M436.074,118.347c0.709-5.153-6.563-9.392-12.027-9.832c-2.606-0.21-5.313,0.188-7.781-0.672
				c-5.349-1.864-7.485-8.774-12.704-10.976c-3.902-1.646-8.394-0.181-12.176,1.723c-3.783,1.904-7.521,4.3-11.747,4.57
				c-3.676,0.235-7.668-1.128-10.884,0.668c-2.397,1.338-3.652,4.1-5.861,5.729c-2.161,1.594-4.98,1.931-7.661,2.077
				c-2.681,0.146-5.457,0.173-7.899,1.291c-2.442,1.118-4.461,3.7-3.955,6.337L436.074,118.347z"/>
		</g>
	</g>
	<g>
		<g>
			<path style="fill:#EBEBEB;" d="M151.333,91.438c0.748-5.432-6.918-9.9-12.678-10.364c-2.747-0.221-5.6,0.199-8.202-0.708
				c-5.638-1.965-7.89-9.249-13.392-11.57c-4.113-1.735-8.848-0.19-12.836,1.816c-3.987,2.007-7.928,4.532-12.383,4.817
				c-3.875,0.248-8.083-1.189-11.473,0.704c-2.526,1.411-3.85,4.322-6.178,6.039c-2.278,1.68-5.25,2.036-8.076,2.19
				c-2.826,0.154-5.753,0.182-8.326,1.361c-2.574,1.178-4.703,3.9-4.169,6.68L151.333,91.438z"/>
		</g>
	</g>
	<g>
		<g>
			<path style="fill:#F5F5F5;" d="M454.463,298.198c1.008-7.32-9.324-13.343-17.087-13.968c-3.702-0.298-7.548,0.267-11.055-0.955
				c-7.599-2.649-10.634-12.466-18.049-15.593c-5.544-2.338-11.925-0.257-17.299,2.448c-5.374,2.705-10.685,6.109-16.689,6.493
				c-5.222,0.334-10.894-1.602-15.463,0.949c-3.405,1.901-5.188,5.824-8.327,8.139c-3.07,2.264-7.075,2.744-10.885,2.951
				c-3.809,0.207-7.753,0.246-11.222,1.834c-3.469,1.588-6.338,5.256-5.618,9.002L454.463,298.198z"/>
		</g>
	</g>
	<g>
		<g>
			<path style="fill:#EBEBEB;" d="M163.495,246.182c0.912-6.627-8.441-12.079-15.469-12.646c-3.352-0.27-6.833,0.242-10.008-0.865
				c-6.879-2.398-9.627-11.285-16.34-14.117c-5.019-2.117-10.796-0.232-15.661,2.216c-4.865,2.449-9.673,5.53-15.109,5.878
				c-4.728,0.303-9.862-1.451-13.999,0.859c-3.082,1.721-4.697,5.273-7.538,7.368c-2.78,2.05-6.405,2.484-9.854,2.672
				c-3.449,0.188-7.019,0.222-10.159,1.66c-3.14,1.438-5.738,4.758-5.086,8.15L163.495,246.182z"/>
		</g>
	</g>
</g>
<g id="Background_Simple" style="display:none;">
	<path style="display:inline;fill:#F5F5F5;" d="M449.455,130.377l-1.858-4.307C431.933,89.758,398,64.463,358.924,61.526
		c-5.023-0.378-10.075-0.393-15.112-0.026c-36.267,2.641-70.615,25.013-88.06,57.355c-10.26,19.021-15.559,41.827-31.949,55.778
		c-21.331,18.157-52.744,14.452-80.164,9.764c-27.419-4.688-58.865-8.314-80.118,9.936c-13.31,11.43-19.541,29.451-21.04,47.028
		c-3.969,46.538,22.477,92.321,60.56,118.545c38.083,26.224,86.028,34.766,132.088,31.965
		c64.525-3.924,129.047-30.37,172.388-79.048S470.106,192.293,449.455,130.377z"/>
	<circle style="display:inline;fill:#F5F5F5;" cx="81.108" cy="132.189" r="21.583"/>
	
		<ellipse transform="matrix(0.9254 -0.379 0.379 0.9254 -105.3484 181.4286)" style="display:inline;fill:#F5F5F5;" cx="408.19" cy="358.32" rx="15.955" ry="15.955"/>
</g>
<g id="Clouds">
	<g>
		<path style="fill:#263238;" d="M472.986,427.269c0,0-0.494-0.541-1.427-1.61c-0.468-0.533-1.027-1.216-1.79-1.935
			c-0.371-0.37-0.772-0.768-1.202-1.195c-0.418-0.439-0.897-0.875-1.426-1.314c-0.52-0.449-1.071-0.925-1.651-1.426
			c-0.574-0.509-1.248-0.957-1.916-1.474c-1.323-1.056-2.904-2.014-4.579-3.095c-3.43-2.034-7.605-4.015-12.529-5.508
			c-4.913-1.494-10.597-2.492-16.809-2.336c-0.775,0.024-1.558,0.048-2.349,0.073c-0.788,0.079-1.583,0.158-2.386,0.238
			c-0.402,0.041-0.805,0.082-1.21,0.124c-0.401,0.07-0.805,0.141-1.21,0.211c-0.81,0.143-1.628,0.288-2.452,0.434
			c-3.261,0.768-6.6,1.771-9.88,3.242c-3.261,1.496-6.529,3.281-9.624,5.525c-3.084,2.251-6.046,4.859-8.775,7.834
			c-5.393,5.987-9.826,13.503-12.103,22.095l-0.06,0.227l-0.221-0.076c-5.805-2.005-12.325-2.283-18.713-1.105
			c-6.404,1.17-12.708,3.703-18.574,7.224c-5.863,3.53-11.329,8.057-15.987,13.477c-4.635,5.415-8.51,11.779-10.575,18.898
			l-0.051,0.174l-0.18,0.009c-9.86,0.499-20.038,0.393-30.424,0.194c-5.194-0.092-10.444-0.186-15.741-0.199
			c-5.298,0.006-10.644,0.012-16.028,0.018c-23.463,0.009-46.207,0.018-67.762,0.026h-0.152l-0.071-0.135
			c-3.47-6.618-8.684-12.097-14.689-16.007c-6.008-3.919-12.847-6.286-19.679-6.825c-6.837-0.549-13.599,0.65-19.617,3.093
			c-6.027,2.443-11.333,6.143-15.477,10.645l-0.236,0.256l-0.122-0.326c-2.979-7.941-7.765-14.715-13.288-20.053
			c-2.792-2.648-5.765-4.946-8.822-6.915c-3.061-1.972-6.258-3.504-9.422-4.785c-3.177-1.271-6.392-2.091-9.512-2.733
			c-0.788-0.117-1.57-0.233-2.343-0.348c-0.387-0.056-0.772-0.112-1.156-0.167c-0.386-0.031-0.771-0.061-1.153-0.092
			c-0.765-0.061-1.523-0.121-2.273-0.18c-0.753-0.01-1.498-0.019-2.235-0.029c-5.906-0.053-11.293,0.924-15.965,2.319
			c-4.681,1.398-8.66,3.231-11.953,5.093c-1.609,0.994-3.125,1.873-4.407,2.838c-1.332,0.895-2.449,1.828-3.459,2.65
			c-1.038,0.79-1.823,1.638-2.57,2.29c-0.747,0.656-1.302,1.28-1.766,1.765c-0.925,0.974-1.414,1.465-1.414,1.465
			s0.456-0.52,1.366-1.51c0.457-0.493,1.006-1.125,1.746-1.79c0.741-0.661,1.521-1.519,2.555-2.318
			c1.006-0.832,2.12-1.775,3.449-2.681c1.28-0.976,2.795-1.866,4.405-2.872c3.294-1.884,7.28-3.742,11.976-5.164
			c4.687-1.418,10.097-2.418,16.035-2.382c0.742,0.007,1.491,0.015,2.248,0.022c0.755,0.058,1.517,0.116,2.287,0.175
			c0.385,0.03,0.772,0.059,1.16,0.089c0.386,0.055,0.774,0.11,1.163,0.165c0.779,0.114,1.565,0.229,2.359,0.344
			c3.142,0.638,6.379,1.456,9.58,2.728c3.188,1.282,6.409,2.818,9.494,4.796c3.082,1.976,6.079,4.284,8.894,6.945
			c5.57,5.365,10.403,12.181,13.419,20.185l-0.358-0.07c4.182-4.556,9.537-8.3,15.623-10.775c6.076-2.474,12.907-3.694,19.824-3.145
			c6.914,0.539,13.831,2.927,19.908,6.885c6.074,3.949,11.351,9.486,14.868,16.185l-0.223-0.135
			c21.555-0.014,44.298-0.029,67.76-0.044c5.385-0.006,10.732-0.011,16.031-0.017c5.302,0.013,10.554,0.108,15.748,0.201
			c10.387,0.202,20.549,0.311,30.39-0.182l-0.231,0.184c2.095-7.209,6.012-13.626,10.687-19.081
			c4.699-5.46,10.206-10.013,16.116-13.565c5.912-3.541,12.269-6.09,18.738-7.265c6.452-1.183,13.054-0.896,18.936,1.145
			l-0.281,0.151c2.308-8.665,6.788-16.232,12.23-22.252c2.754-2.992,5.741-5.612,8.85-7.872c3.12-2.253,6.414-4.045,9.7-5.543
			c3.306-1.474,6.67-2.476,9.954-3.242c0.831-0.145,1.654-0.289,2.47-0.431c0.408-0.07,0.814-0.14,1.218-0.209
			c0.408-0.041,0.814-0.081,1.218-0.121c0.808-0.078,1.609-0.156,2.402-0.233c0.796-0.022,1.584-0.045,2.364-0.067
			c6.248-0.14,11.958,0.882,16.887,2.4c4.94,1.518,9.123,3.524,12.555,5.582c1.676,1.093,3.256,2.064,4.577,3.13
			c0.666,0.523,1.339,0.977,1.912,1.491c0.578,0.507,1.127,0.987,1.645,1.441c0.527,0.445,1.003,0.885,1.418,1.329
			c0.426,0.432,0.824,0.836,1.193,1.209c0.757,0.728,1.309,1.419,1.769,1.96C472.527,426.7,472.986,427.269,472.986,427.269z"/>
	</g>
</g>
<g id="Stars">
	<g>
		<g>
			<g>
				<path style="fill:#FF725E;" d="M247.976,50.833l5.228,10.592c0.372,0.754,1.092,1.277,1.924,1.398l11.689,1.699
					c2.096,0.305,2.934,2.881,1.417,4.36l-8.459,8.245c-0.602,0.587-0.877,1.433-0.735,2.262l1.997,11.642
					c0.358,2.088-1.833,3.68-3.709,2.694l-10.456-5.497c-0.745-0.391-1.634-0.391-2.379,0l-10.455,5.497
					c-1.875,0.986-4.067-0.606-3.709-2.694l1.997-11.642c0.142-0.829-0.133-1.675-0.735-2.262l-8.459-8.245
					c-1.517-1.479-0.68-4.055,1.417-4.36l11.69-1.699c0.832-0.121,1.552-0.644,1.924-1.398l5.228-10.592
					C244.329,48.933,247.038,48.933,247.976,50.833z"/>
				<g>
					<path style="fill:#FF725E;" d="M228.045,57.831c-0.099,0.104-6.734-6.056-14.817-13.758
						c-8.086-7.704-14.558-14.032-14.459-14.136c0.099-0.104,6.732,6.055,14.818,13.759
						C221.67,51.397,228.144,57.727,228.045,57.831z"/>
				</g>
				<g>
					<path style="fill:#FF725E;" d="M214.176,64.349c-0.009,0.144-5.705-0.086-12.721-0.512c-7.019-0.426-12.699-0.888-12.691-1.032
						c0.009-0.144,5.704,0.086,12.722,0.512C208.503,63.743,214.185,64.205,214.176,64.349z"/>
				</g>
				<g>
					<path style="fill:#FF725E;" d="M235.803,45.369c-0.131,0.058-1.778-3.353-3.677-7.619c-1.9-4.267-3.333-7.773-3.202-7.831
						c0.131-0.059,1.778,3.352,3.678,7.619C234.501,41.805,235.934,45.311,235.803,45.369z"/>
				</g>
				<g>
					<path style="fill:#FF725E;" d="M244.65,11.402c0.144,0,0.26,6.968,0.26,15.562c0,8.597-0.117,15.563-0.26,15.563
						s-0.26-6.967-0.26-15.563C244.39,18.37,244.507,11.402,244.65,11.402z"/>
				</g>
				<g>
					<path style="fill:#FF725E;" d="M262.331,30.208c0.13,0.062-1.35,3.442-3.305,7.548c-1.956,4.108-3.646,7.387-3.775,7.325
						c-0.13-0.062,1.35-3.441,3.305-7.549C260.511,33.426,262.202,30.146,262.331,30.208z"/>
				</g>
				<g>
					<path style="fill:#FF725E;" d="M290.896,35.301c0.082,0.118-7.545,5.581-17.034,12.201
						c-9.492,6.622-17.252,11.893-17.334,11.775c-0.082-0.118,7.544-5.58,17.036-12.202
						C283.053,40.455,290.814,35.183,290.896,35.301z"/>
				</g>
				<g>
					<path style="fill:#FF725E;" d="M291.648,57.416c0.052,0.134-3.722,1.724-8.43,3.552c-4.709,1.828-8.567,3.2-8.619,3.066
						c-0.052-0.134,3.722-1.724,8.43-3.552C287.737,58.655,291.596,57.282,291.648,57.416z"/>
				</g>
				<g>
					<path style="fill:#FF725E;" d="M225.152,78.727c0.047,0.136-9.872,3.671-22.152,7.895c-12.284,4.226-22.277,7.539-22.324,7.404
						c-0.047-0.136,9.87-3.671,22.155-7.896C215.11,81.906,225.106,78.591,225.152,78.727z"/>
				</g>
				<g>
					<path style="fill:#FF725E;" d="M303.325,89.629c-0.039,0.139-8.768-2.19-19.496-5.2c-10.731-3.011-19.396-5.563-19.357-5.702
						c0.039-0.138,8.767,2.189,19.498,5.201C294.697,86.938,303.364,89.491,303.325,89.629z"/>
				</g>
			</g>
			<g>
				<path style="fill:#FF725E;" d="M216.98,107.704c-0.094-0.109,2.553-2.566,5.912-5.487c3.36-2.923,6.16-5.203,6.254-5.095
					c0.094,0.108-2.552,2.565-5.912,5.488C219.875,105.532,217.075,107.813,216.98,107.704z"/>
			</g>
			<g>
				<path style="fill:#FF725E;" d="M245.481,132.189c-0.144-0.001-0.215-8.545-0.159-19.082c0.056-10.54,0.218-19.082,0.362-19.081
					c0.144,0.001,0.215,8.543,0.159,19.084C245.787,123.646,245.625,132.189,245.481,132.189z"/>
			</g>
			<g>
				<path style="fill:#FF725E;" d="M274.958,109.839c-0.099,0.105-2.848-2.33-6.141-5.438c-3.293-3.109-5.882-5.713-5.784-5.817
					s2.848,2.33,6.141,5.439C272.467,107.129,275.056,109.734,274.958,109.839z"/>
			</g>
		</g>
		<path style="fill:#FF725E;" d="M296.391,73.801l0.089,1.72c0.006,0.122,0.073,0.234,0.177,0.298l1.467,0.902
			c0.263,0.162,0.227,0.555-0.062,0.666l-1.608,0.616c-0.115,0.044-0.2,0.141-0.229,0.261l-0.404,1.674
			c-0.073,0.3-0.458,0.387-0.652,0.147l-1.083-1.339c-0.077-0.095-0.196-0.147-0.318-0.137l-1.717,0.133
			c-0.308,0.024-0.51-0.316-0.341-0.575l0.939-1.444c0.067-0.103,0.079-0.232,0.032-0.345l-0.657-1.592
			c-0.118-0.286,0.143-0.582,0.441-0.502l1.663,0.447c0.118,0.032,0.245,0.003,0.338-0.076l1.311-1.117
			C296.013,73.336,296.375,73.493,296.391,73.801z"/>
		<path style="fill:#FF725E;" d="M307.434,55.667l0.783,0.82c0.056,0.058,0.137,0.086,0.217,0.073l1.12-0.18
			c0.201-0.032,0.352,0.18,0.255,0.359l-0.538,0.999c-0.038,0.071-0.039,0.157-0.002,0.228l0.518,1.01
			c0.093,0.181-0.062,0.39-0.262,0.354l-1.116-0.203c-0.079-0.014-0.161,0.011-0.218,0.068l-0.8,0.804
			c-0.143,0.144-0.39,0.061-0.417-0.14l-0.151-1.124c-0.011-0.08-0.06-0.15-0.132-0.186l-1.012-0.513
			c-0.181-0.092-0.179-0.352,0.005-0.44l1.022-0.491c0.073-0.035,0.124-0.104,0.136-0.183l0.175-1.121
			C307.045,55.598,307.293,55.52,307.434,55.667z"/>
		<path style="fill:#FF725E;" d="M180.605,42.061l0.783,0.82c0.056,0.058,0.137,0.086,0.217,0.073l1.12-0.18
			c0.201-0.032,0.352,0.18,0.255,0.359l-0.538,0.999c-0.038,0.071-0.039,0.156-0.002,0.228l0.518,1.009
			c0.093,0.181-0.062,0.39-0.262,0.353l-1.116-0.203c-0.079-0.014-0.161,0.011-0.218,0.068l-0.8,0.804
			c-0.143,0.144-0.39,0.061-0.417-0.14l-0.152-1.124c-0.011-0.08-0.06-0.15-0.132-0.186l-1.012-0.513
			c-0.182-0.092-0.179-0.352,0.005-0.44l1.022-0.492c0.073-0.035,0.124-0.104,0.136-0.184l0.175-1.121
			C180.216,41.992,180.465,41.914,180.605,42.061z"/>
	</g>
</g>
<g id="Birds">
	<g>
		<g>
			<path style="fill:#263238;" d="M81.108,283.827c-0.014,0.039-0.42-0.109-1.174-0.262c-0.751-0.15-1.872-0.281-3.226-0.085
				c-1.344,0.191-2.93,0.74-4.315,1.889c-1.384,1.129-2.567,2.831-3.04,4.844l-0.014,0.054l-0.185,0.717l-0.275-0.681
				c-0.776-1.915-2.152-3.441-3.645-4.416c-1.497-0.992-3.109-1.411-4.46-1.514c-2.744-0.187-4.349,0.67-4.368,0.555
				c-0.011-0.023,0.365-0.241,1.11-0.482c0.741-0.238,1.871-0.48,3.28-0.414c1.399,0.063,3.097,0.463,4.68,1.481
				c1.578,1,3.035,2.591,3.852,4.609l-0.46,0.037l0.015-0.057c0.501-2.132,1.761-3.914,3.231-5.081
				c1.474-1.19,3.154-1.729,4.552-1.882c1.41-0.158,2.559,0.031,3.313,0.241C80.734,283.595,81.118,283.804,81.108,283.827z"/>
		</g>
	</g>
	<g>
		<g>
			<path style="fill:#263238;" d="M129.512,279.991c0.04,0.042-0.534,0.634-1.514,1.748c-0.981,1.112-2.32,2.799-3.717,5.046
				c-2.809,4.437-5.62,11.499-5.523,19.597c0,0.085-0.001,0.169-0.002,0.247l-0.681,0.056c-1.174-7.966-5.354-14.313-9.022-17.984
				c-3.69-3.749-6.689-5.204-6.59-5.343c0.011-0.021,0.197,0.065,0.541,0.247c0.337,0.193,0.862,0.438,1.477,0.851
				c1.262,0.775,3.004,2.052,4.913,3.904c1.911,1.846,3.934,4.33,5.655,7.412c1.725,3.073,3.091,6.772,3.703,10.814l-0.681,0.056
				c0.001-0.079,0.001-0.165,0.002-0.252c-0.099-8.267,2.847-15.438,5.799-19.865c1.468-2.244,2.88-3.902,3.929-4.967
				c0.506-0.55,0.956-0.923,1.241-1.193C129.335,280.103,129.496,279.974,129.512,279.991z"/>
		</g>
	</g>
	<g>
		<g>
			<g>
				<path style="fill:#263238;" d="M376.876,220.562c-0.017,0.048-0.836-0.289-2.384-0.632c-1.539-0.338-3.85-0.637-6.653-0.256
					c-2.782,0.372-6.079,1.491-8.965,3.867c-2.88,2.332-5.344,5.861-6.328,10.047c-0.01,0.038-0.02,0.076-0.029,0.111l-0.184,0.718
					l-0.276-0.681c-1.611-3.978-4.472-7.139-7.576-9.148c-3.112-2.046-6.46-2.894-9.252-3.085c-2.811-0.196-5.091,0.208-6.611,0.605
					c-1.526,0.403-2.332,0.757-2.35,0.712c-0.007-0.015,0.191-0.11,0.575-0.277c0.382-0.169,0.961-0.39,1.725-0.615
					c1.518-0.457,3.821-0.92,6.682-0.765c2.841,0.15,6.274,0.979,9.472,3.052c3.188,2.035,6.13,5.26,7.783,9.341l-0.46,0.037
					c0.009-0.036,0.019-0.075,0.029-0.115c1.012-4.305,3.553-7.914,6.518-10.284c2.974-2.416,6.364-3.525,9.201-3.859
					c2.859-0.344,5.198,0.014,6.74,0.412c0.776,0.195,1.365,0.397,1.754,0.555C376.681,220.458,376.882,220.547,376.876,220.562z"/>
			</g>
		</g>
		<g>
			<g>
				<path style="fill:#263238;" d="M443.393,184.062c-0.015,0.04-0.47-0.131-1.321-0.307c-0.846-0.173-2.111-0.324-3.64-0.106
					c-1.518,0.213-3.31,0.831-4.878,2.128c-1.564,1.274-2.902,3.197-3.437,5.473l-0.016,0.061l-0.184,0.718l-0.276-0.681
					c-0.876-2.164-2.432-3.888-4.121-4.988c-1.692-1.119-3.514-1.59-5.039-1.704c-1.535-0.117-2.784,0.092-3.62,0.297
					c-0.839,0.208-1.288,0.389-1.304,0.35c-0.007-0.015,0.099-0.074,0.308-0.173c0.208-0.1,0.525-0.228,0.945-0.359
					c0.835-0.265,2.106-0.533,3.692-0.456c1.573,0.073,3.481,0.525,5.259,1.671c1.772,1.125,3.409,2.913,4.327,5.181l-0.46,0.037
					l0.016-0.064c0.563-2.394,1.978-4.397,3.628-5.709c1.655-1.338,3.542-1.946,5.114-2.121c1.586-0.181,2.878,0.029,3.727,0.262
					c0.427,0.114,0.75,0.232,0.962,0.326C443.291,183.991,443.399,184.046,443.393,184.062z"/>
			</g>
		</g>
		<g>
			<g>
				<path style="fill:#263238;" d="M399.903,169.123c0.03,0.03-0.455,0.522-1.279,1.45c-0.825,0.927-1.949,2.335-3.122,4.214
					c-2.358,3.709-4.717,9.621-4.636,16.404c-0.001,0.071-0.001,0.141-0.002,0.207l-0.481,0.04
					c-0.501-3.309-1.605-6.346-2.999-8.884c-1.39-2.545-3.023-4.613-4.567-6.169c-1.541-1.561-2.947-2.662-3.959-3.357
					c-1.01-0.699-1.596-1.051-1.574-1.088c0.008-0.014,0.162,0.06,0.448,0.214c0.281,0.163,0.717,0.371,1.23,0.718
					c1.051,0.652,2.504,1.722,4.095,3.272c1.594,1.545,3.28,3.62,4.715,6.195c1.438,2.567,2.577,5.655,3.088,9.029l-0.481,0.04
					c0-0.066,0.001-0.138,0.002-0.21c-0.083-6.901,2.372-12.89,4.831-16.593c1.223-1.877,2.399-3.265,3.272-4.159
					c0.421-0.462,0.795-0.775,1.031-1.003C399.759,169.221,399.891,169.111,399.903,169.123z"/>
			</g>
		</g>
	</g>
</g>
<g id="Character">
	<g>
		<g>
			<path style="fill:#455A64;" d="M204.306,197.328c21.764,0,43.529,0,65.293,0c6.147,0,12.294,0,18.442,0c3.217,0,3.223-5,0-5
				c-21.764,0-43.529,0-65.293,0c-6.147,0-12.294,0-18.442,0C201.089,192.328,201.083,197.328,204.306,197.328L204.306,197.328z"/>
		</g>
		<g>
			<rect x="201.203" y="101.746" style="fill:#455A64;" width="6" height="383.979"/>
		</g>
		<g>
			<path style="fill:#263238;" d="M206.89,485.726c-0.144,0-0.26-85.907-0.26-191.855c0-105.984,0.117-191.873,0.26-191.873
				c0.144,0,0.26,85.889,0.26,191.873C207.15,399.819,207.033,485.726,206.89,485.726z"/>
		</g>
		<g>
			<path style="fill:#455A64;" d="M204.306,158.476c21.764,0,43.529,0,65.293,0c6.147,0,12.294,0,18.442,0c3.217,0,3.223-5,0-5
				c-21.764,0-43.529,0-65.293,0c-6.147,0-12.294,0-18.442,0C201.089,153.476,201.083,158.476,204.306,158.476L204.306,158.476z"/>
		</g>
		<g>
			<rect x="284.938" y="102.534" style="fill:#455A64;" width="6" height="383.192"/>
		</g>
		<g>
			<path style="fill:#263238;" d="M285.087,437.453c-0.144,0-0.26-74.833-0.26-167.122c0-92.322,0.117-167.139,0.26-167.139
				c0.144,0,0.26,74.817,0.26,167.139C285.348,362.62,285.231,437.453,285.087,437.453z"/>
		</g>
		<g>
			<path style="fill:#455A64;" d="M204.203,453.259c21.764,0,43.529,0,65.293,0c6.147,0,12.294,0,18.442,0c3.217,0,3.223-5,0-5
				c-21.764,0-43.529,0-65.293,0c-6.147,0-12.294,0-18.442,0C200.985,448.259,200.98,453.259,204.203,453.259L204.203,453.259z"/>
		</g>
		<g>
			<path style="fill:#455A64;" d="M205.947,375.748c20.415,0,40.831,0,61.246,0c5.809,0,11.619,0,17.428,0c3.217,0,3.223-5,0-5
				c-20.415,0-40.831,0-61.246,0c-5.809,0-11.619,0-17.428,0C202.73,370.748,202.725,375.748,205.947,375.748L205.947,375.748z"/>
		</g>
		<g>
			<path style="fill:#455A64;" d="M204.203,321.579c21.764,0,43.529,0,65.293,0c6.147,0,12.294,0,18.442,0c3.217,0,3.223-5,0-5
				c-21.764,0-43.529,0-65.293,0c-6.147,0-12.294,0-18.442,0C200.985,316.579,200.98,321.579,204.203,321.579L204.203,321.579z"/>
		</g>
		<g>
			<path style="fill:#455A64;" d="M204.203,278.847c21.764,0,43.529,0,65.293,0c6.147,0,12.294,0,18.442,0c3.217,0,3.223-5,0-5
				c-21.764,0-43.529,0-65.293,0c-6.147,0-12.294,0-18.442,0C200.985,273.847,200.98,278.847,204.203,278.847L204.203,278.847z"/>
		</g>
		<g>
			<path style="fill:#455A64;" d="M204.203,237.13c21.764,0,43.529,0,65.293,0c6.147,0,12.294,0,18.442,0c3.217,0,3.223-5,0-5
				c-21.764,0-43.529,0-65.293,0c-6.147,0-12.294,0-18.442,0C200.985,232.13,200.98,237.13,204.203,237.13L204.203,237.13z"/>
		</g>
		<g>
			<path style="fill:#455A64;" d="M205.032,415.693c20.644,0,41.287,0,61.931,0c5.886,0,11.773,0,17.659,0c3.217,0,3.223-5,0-5
				c-20.644,0-41.287,0-61.931,0c-5.886,0-11.773,0-17.659,0C201.814,410.693,201.809,415.693,205.032,415.693L205.032,415.693z"/>
		</g>
	</g>
	<g>
		<path style="fill:#FFBE9D;" d="M273.134,163.697l-5.082-11.312c0,0,0.265-6.043-0.593-6.555c-1.18-0.703-1.467-0.12-1.797,1.898
			l-0.475,2.969c0,0-1.938-4.223-3.75-4.399c-1.226-0.119-1.581,2.023-1.581,2.023s-2.042-1.914-3.5-1.456
			c-1.368,0.429-0.988,2.447-0.988,2.447s-1.712-1.025-2.458,0.786c-0.854,2.074,2.876,5.21,3.446,6.597
			c1.193,2.905-1.333,2.999-1.333,2.999s-6.498-0.833-6.165,0.833s2.499,1.666,4.165,1.833c1.389,0.139,6.601,1.436,8.295,1.863
			c0.354,0.089,0.69,0.237,0.996,0.437l3.88,3.983L273.134,163.697z"/>
		<g>
			<g>
				<g>
					<g>
						<g>
							<polygon style="fill:#FF725E;" points="270.497,423.464 270.276,452.499 254.609,452.693 254.77,423.602 							"/>
						</g>
					</g>
				</g>
				<g>
					<g>
						<g>
							<g>
								<path style="fill:#263238;" d="M262.545,451.5c-0.131-0.002-0.109-6.36,0.049-14.197c0.158-7.84,0.392-14.192,0.523-14.189
									c0.131,0.003,0.109,6.359-0.049,14.199C262.91,445.15,262.676,451.503,262.545,451.5z"/>
							</g>
						</g>
					</g>
				</g>
				<g>
					<g>
						<g>
							<g>
								<path style="fill:#263238;" d="M254.661,443.396c-0.024-0.018,0.113-0.248,0.408-0.63c0.295-0.381,0.762-0.905,1.414-1.477
									c0.652-0.569,1.497-1.185,2.55-1.668c1.042-0.491,2.31-0.831,3.661-0.803c2.709,0.036,4.972,1.389,6.078,2.725
									c0.575,0.659,0.927,1.277,1.127,1.717c0.196,0.443,0.268,0.701,0.241,0.712c-0.086,0.047-0.452-0.984-1.614-2.202
									c-1.125-1.221-3.272-2.442-5.842-2.479c-2.562-0.045-4.689,1.225-5.985,2.254
									C255.374,442.601,254.726,443.452,254.661,443.396z"/>
							</g>
						</g>
					</g>
				</g>
				<g>
					<g>
						<g>
							<polygon style="opacity:0.3;" points="254.616,434.108 254.599,437.307 270.497,437.307 270.497,434.108 							"/>
						</g>
					</g>
				</g>
			</g>
			<polygon style="fill:#E0E0E0;" points="254.609,452.693 254.626,449.663 270.298,449.666 270.276,452.499 			"/>
		</g>
		<g>
			<g>
				<g>
					<g>
						<g>
							<polygon style="fill:#FF725E;" points="237.634,348.106 237.422,375.97 222.387,376.156 222.542,348.238 							"/>
						</g>
					</g>
				</g>
				<g>
					<g>
						<g>
							<g>
								<path style="fill:#263238;" d="M230.003,375.011c-0.126-0.002-0.105-6.103,0.047-13.625
									c0.151-7.524,0.376-13.619,0.501-13.617c0.126,0.003,0.105,6.102-0.047,13.626
									C230.354,368.917,230.129,375.013,230.003,375.011z"/>
							</g>
						</g>
					</g>
				</g>
				<g>
					<g>
						<g>
							<g>
								<path style="fill:#263238;" d="M222.437,367.234c-0.023-0.017,0.109-0.238,0.392-0.604c0.283-0.366,0.732-0.868,1.357-1.417
									c0.626-0.546,1.437-1.137,2.447-1.601c1-0.471,2.217-0.798,3.513-0.77c2.6,0.035,4.771,1.333,5.833,2.615
									c0.551,0.633,0.889,1.226,1.081,1.648c0.188,0.425,0.257,0.673,0.231,0.683c-0.083,0.045-0.434-0.944-1.549-2.113
									c-1.079-1.172-3.14-2.343-5.607-2.379c-2.459-0.043-4.5,1.176-5.744,2.163C223.121,366.47,222.499,367.287,222.437,367.234z
									"/>
							</g>
						</g>
					</g>
				</g>
				<g>
					<g>
						<g>
							<polygon style="opacity:0.3;" points="222.394,358.32 222.377,361.39 237.634,361.39 237.634,358.32 							"/>
						</g>
					</g>
				</g>
			</g>
			<polygon style="fill:#E0E0E0;" points="222.387,376.156 222.404,373.248 237.443,373.251 237.422,375.97 			"/>
		</g>
		<g>
			<g>
				<g>
					<g>
						<g>
							<path style="fill:#263238;" d="M240.499,161.325l0.398-0.101c1.201-2.17,3.639-3.524,6.114-3.651
								c2.474-0.127,4.936,0.889,6.792,2.532c1.289,1.141,2.306,2.565,3.601,3.7c1.295,1.135,3.018,1.988,4.702,1.634
								c0.206,0.628-0.966,1-0.894,1.657c0.035,0.313,0.357,0.519,0.665,0.581c0.453,0.091,0.921-0.024,1.382-0.01
								c0.462,0.014,0.985,0.228,1.1,0.676c0.056,0.219,0.002,0.451-0.055,0.669c-0.514,1.962-1.327,3.899-2.734,5.358
								c-1.407,1.459-3.488,2.372-5.479,1.998c-1.59-0.298-2.922-1.344-4.184-2.356c-2.398-1.923-4.796-3.845-7.194-5.768
								c-1.107-0.887-2.227-1.788-3.064-2.933C240.812,164.164,240.276,162.726,240.499,161.325z"/>
						</g>
					</g>
				</g>
				<g>
					<g>
						<g>
							<path style="fill:#263238;" d="M242,161.725c-0.984-0.785-2.114-1.421-3.349-1.661c-1.235-0.239-2.584-0.048-3.605,0.689
								c-0.949,0.685-1.529,1.755-2.198,2.716c-0.669,0.962-1.556,1.9-2.714,2.069c-0.203,0.03-0.428,0.042-0.577,0.184
								c-0.264,0.251-0.073,0.738,0.258,0.888c0.331,0.15,0.716,0.071,1.07-0.01c-0.572,0.67-1.385,1.13-2.254,1.273
								c0.19,0.855,1.189,1.431,2.023,1.167c-0.335,1.36-0.671,2.738-0.663,4.139c0.008,1.401,0.397,2.851,1.348,3.878
								c1.048,1.132,2.752,1.765,3.209,3.24"/>
						</g>
					</g>
				</g>
				<g>
					<g>
						<g>
							<g>
								<g>
									<g>
										<g>
											<g>
												<g>
													<g>
														<g>
															<g>
																<path style="fill:#FFBE9D;" d="M252.095,211.139l-18.723-0.241l2.09-15.962c0,0-1.279-0.274-1.365-7.218
																	c-0.086-6.945-0.404-18.743-0.404-18.743l0,0c8.028-3.455,17.295-2.288,24.22,3.049l1.028,0.792L252.095,211.139z"
																	/>
															</g>
														</g>
													</g>
												</g>
											</g>
										</g>
									</g>
								</g>
							</g>
						</g>
					</g>
					<g>
						<g>
							<g>
								<g>
									<g>
										<g>
											<g>
												<g>
													<g>
														<path style="fill:#FFBE9D;" d="M256.767,181.355c0.118-0.051,4.765-1.411,4.614,3.337
															c-0.151,4.748-4.88,3.616-4.884,3.48C256.493,188.035,256.767,181.355,256.767,181.355z"/>
													</g>
												</g>
											</g>
										</g>
									</g>
								</g>
							</g>
						</g>
					</g>
					<g>
						<g>
							<g>
								<g>
									<g>
										<g>
											<g>
												<g>
													<g>
														<path style="fill:#FFBE9D;" d="M234.499,180.364c-0.118-0.051-4.345-1.192-4.194,3.555
															c0.151,4.748,4.881,3.616,4.885,3.48C235.193,187.263,234.499,180.364,234.499,180.364z"/>
													</g>
												</g>
											</g>
										</g>
									</g>
								</g>
							</g>
						</g>
					</g>
					<g>
						<g>
							<g>
								<g>
									<g>
										<path style="fill:#263238;" d="M258.305,180.826c-0.708,3.978-0.569,6.068-1.224,8.725
											c-1.037,4.205-3.122,7.429-6.906,9.529c-3.783,2.1-8.9,2.062-12.15-0.797c-2.255-1.984-3.853-4.225-4.188-7.212
											c-0.334-2.987-1.214-8.597-1.235-11.603c-0.038-5.421,0.143-10.282,0.143-10.282l15.466-2.803l8.801,5.24L258.305,180.826
											z"/>
									</g>
								</g>
							</g>
						</g>
					</g>
					<g>
						<g>
							<g>
								<g>
									<g>
										<g>
											<path style="fill:#263238;" d="M242.352,201.478c-0.024,0.11,1.193,0.412,2.71,0.24c1.518-0.163,2.64-0.723,2.593-0.825
												c-0.044-0.119-1.188,0.24-2.64,0.394C243.564,201.452,242.369,201.352,242.352,201.478z"/>
										</g>
									</g>
								</g>
							</g>
						</g>
					</g>
					<g>
						<g>
							<g>
								<g>
									<g>
										<path style="fill:#263238;" d="M257.558,187.589c0.453-4.077,0.747-8.74,1.383-13.037
											c0.239-1.613,0.813-3.938,0.669-5.562c-0.144-1.631-0.588-1.134-1.305-2.605c-0.9-1.845-4.336-3.074-6.347-3.479
											c-2.01-0.405-2.26-2.145-3.802-0.792c-1.124-1.686-3.336-2.564-5.309-2.107c-1.973,0.457-3.575,2.218-3.845,4.227
											c-1.1-1.048-2.916-1.244-4.214-0.455c-1.298,0.789-1.961,2.493-1.539,3.954c-1.11,0.185-2.105,0.958-2.559,1.99
											c-0.454,1.031-0.353,2.289,0.261,3.234c0.716,1.105,2.008,1.713,2.798,2.766c0.91,1.213,1.008,2.979,0.238,4.286"/>
									</g>
								</g>
							</g>
						</g>
						<g>
							<g>
								<g>
									<g>
										<g>
											<path style="fill:#455A64;" d="M237.632,186.74c-0.103-0.024-0.319,1.946,0.534,4.173
												c0.832,2.236,2.295,3.57,2.356,3.483c0.105-0.086-1.158-1.496-1.951-3.636
												C237.752,188.629,237.767,186.735,237.632,186.74z"/>
										</g>
									</g>
								</g>
							</g>
						</g>
						<g>
							<g>
								<g>
									<g>
										<g>
											<path style="fill:#455A64;" d="M235.554,183.277c-0.096-0.049-0.698,1.644-0.302,3.759
												c0.374,2.119,1.534,3.491,1.606,3.411c0.115-0.07-0.829-1.481-1.18-3.489
												C235.299,184.956,235.686,183.302,235.554,183.277z"/>
										</g>
									</g>
								</g>
							</g>
						</g>
					</g>
				</g>
				<g>
					<g>
						<g>
							<path style="fill:#263238;" d="M255.03,166.864c-1.178-1.853-2.786-3.51-4.824-4.322c-2.038-0.812-4.545-0.644-6.213,0.782"
								/>
						</g>
					</g>
				</g>
				<g>
					<g>
						<g>
							<g>
								<path style="fill:#455A64;" d="M254.641,177.373c-0.076-0.019,0.001-0.554,0.152-1.401c0.145-0.846,0.369-2.01,0.358-3.29
									c-0.012-1.277-0.331-2.407-0.709-3.147c-0.371-0.748-0.747-1.134-0.685-1.197c0.038-0.05,0.529,0.246,1.023,1.004
									c0.498,0.746,0.91,1.966,0.921,3.334c0.01,1.364-0.287,2.555-0.529,3.386C254.92,176.895,254.712,177.391,254.641,177.373z"
									/>
							</g>
						</g>
					</g>
				</g>
				<g>
					<g>
						<g>
							<g>
								<path style="fill:#455A64;" d="M251.443,178.944c-0.137-0.076,0.246-1.015,0.617-2.194c0.378-1.177,0.606-2.166,0.762-2.148
									c0.146,0.013,0.158,1.078-0.238,2.315C252.193,178.154,251.57,179.018,251.443,178.944z"/>
							</g>
						</g>
					</g>
				</g>
				<g>
					<g>
						<g>
							<g>
								<path style="fill:#455A64;" d="M236.59,177.724c-0.047,0.037-0.582-0.539-1.064-1.697c-0.483-1.142-0.841-2.917-0.463-4.818
									c0.381-1.902,1.393-3.403,2.278-4.271c0.89-0.883,1.604-1.209,1.634-1.156c0.052,0.074-0.572,0.51-1.348,1.42
									c-0.776,0.898-1.669,2.338-2.024,4.115c-0.354,1.777-0.083,3.449,0.289,4.577
									C236.259,177.033,236.667,177.676,236.59,177.724z"/>
							</g>
						</g>
					</g>
				</g>
				<g>
					<g>
						<g>
							<g>
								<path style="fill:#455A64;" d="M253.496,160.06c-0.042,0.07-0.607-0.225-1.526-0.643c-0.916-0.404-2.229-0.934-3.73-0.916
									c-1.507-0.009-2.748,0.688-3.381,1.427c-0.655,0.732-0.776,1.378-0.866,1.353c-0.058,0.005-0.08-0.714,0.564-1.599
									c0.319-0.431,0.801-0.88,1.44-1.207c0.638-0.33,1.42-0.513,2.235-0.524c1.648-0.016,3.022,0.618,3.912,1.119
									C253.044,159.589,253.532,160.001,253.496,160.06z"/>
							</g>
						</g>
					</g>
				</g>
				<g>
					<g>
						<g>
							<g>
								<path style="fill:#455A64;" d="M232.348,164.46c-0.06-0.022,0.052-0.553,0.551-1.256c0.487-0.696,1.425-1.536,2.712-1.912
									c1.288-0.373,2.53-0.167,3.314,0.16c0.798,0.326,1.176,0.714,1.137,0.765c-0.047,0.073-0.491-0.187-1.261-0.396
									c-0.761-0.213-1.885-0.334-3.037,0c-1.15,0.336-2.035,1.04-2.564,1.629C232.663,164.039,232.426,164.497,232.348,164.46z"/>
							</g>
						</g>
					</g>
				</g>
				<g>
					<g>
						<g>
							<g>
								<path style="fill:#455A64;" d="M237.448,181.911c-0.018-0.066,0.764-0.274,2.012-0.834c1.241-0.559,2.952-1.52,4.577-3.1
									l0.897-0.872l-0.49,1.156c-0.293,0.692-0.528,1.451-0.67,2.256c-0.077,0.388-0.138,0.882,0.008,0.948
									c0.105,0.121,0.53-0.092,0.883-0.342c1.261-0.813,2.331-1.798,3.182-2.817l0.824-0.987l-0.376,1.224
									c-0.376,1.225-0.727,2.366-1.045,3.399l-0.357-0.217c2.172-2.056,2.925-3.89,3.03-3.82c0.035,0.016-0.118,0.477-0.533,1.237
									c-0.416,0.756-1.109,1.811-2.198,2.896l-0.58,0.578l0.224-0.795c0.293-1.041,0.616-2.19,0.963-3.423l0.448,0.238
									c-0.867,1.071-1.972,2.105-3.283,2.951c-0.193,0.119-0.369,0.248-0.614,0.355c-0.219,0.096-0.581,0.191-0.895-0.038
									c-0.303-0.239-0.316-0.589-0.306-0.819c0.018-0.252,0.058-0.446,0.096-0.664c0.157-0.847,0.415-1.641,0.736-2.362
									l0.407,0.285c-1.712,1.604-3.51,2.529-4.809,3.018C238.27,181.85,237.457,181.955,237.448,181.911z"/>
							</g>
						</g>
					</g>
				</g>
				<g>
					<g>
						<g>
							<path style="fill:#263238;" d="M246.497,163.601c-0.299-0.575-0.874-0.975-1.496-1.155c-0.622-0.181-1.287-0.16-1.924-0.046
								c-1.561,0.279-3.015,1.121-4.034,2.337c-0.233,0.278-0.44,0.707-0.193,0.971c0.131,0.14,0.34,0.166,0.53,0.182
								c2.329,0.194,4.682,0.111,6.992-0.248"/>
						</g>
					</g>
				</g>
			</g>
		</g>
		<g>
			<path style="fill:#263238;" d="M215.932,303.052c0.31,0.556,4.1,13.238,12.462,15.388c8.362,2.15,34.403,0.717,35.12,0
				c0.717-0.717,8.371-4.937,12.07-13.697c3.699-8.76-22.878-24.051-22.878-24.051L215.932,303.052z"/>
			<path style="fill:#263238;" d="M279.985,306.478l0.236,7.072c0,1.089-0.135,6.568-0.252,7.65l-3.245,43.91
				c-0.324-0.128-2.214,27.033-2.379,36.52c-0.159,9.156-0.924,34.077-0.924,34.077h-21.367l-1.439-41.254l-0.9-44.665
				l-1.327-31.245L279.985,306.478z"/>
			<path style="fill:#263238;" d="M215.932,296.06c0,0,0.466,0.701,0.358,10.418c-0.082,7.429,4.428,53.229,4.428,53.229
				l18.256-0.552l3.647-45.861L215.932,296.06z"/>
			<g>
				<path style="fill:#455A64;" d="M250.074,319.088c0.003,0.036-0.543,0.111-1.533,0.216c-0.99,0.102-2.424,0.236-4.202,0.349
					c-3.543,0.243-8.534,0.313-13.892-0.809c-5.4-1.136-9.688-4.207-11.785-7.125c-1.075-1.445-1.695-2.782-2.003-3.734
					c-0.18-0.468-0.237-0.858-0.307-1.111c-0.058-0.257-0.08-0.392-0.063-0.397c0.133-0.061,0.472,2.229,2.664,5.017
					c2.119,2.789,6.327,5.729,11.601,6.84c5.292,1.107,10.225,1.098,13.766,0.95c1.704-0.074,3.119-0.136,4.205-0.183
					C249.521,319.06,250.072,319.052,250.074,319.088z"/>
			</g>
			<g>
				<path style="fill:#455A64;" d="M271.715,318.207c0.014,0.067-0.876,0.323-2.342,0.619c-1.465,0.297-3.509,0.617-5.784,0.817
					c-2.275,0.199-4.344,0.24-5.839,0.203c-1.495-0.036-2.416-0.133-2.414-0.201c0.002-0.076,0.924-0.108,2.411-0.167
					c1.487-0.058,3.537-0.157,5.796-0.354c2.258-0.199,4.294-0.459,5.768-0.662C270.785,318.261,271.7,318.133,271.715,318.207z"/>
			</g>
			<g>
				<path style="fill:#455A64;" d="M271.088,326.25c-0.01,0.067-1.191-0.029-3.085-0.312c-1.894-0.282-4.497-0.768-7.335-1.466
					c-2.839-0.701-5.369-1.482-7.177-2.113c-1.808-0.63-2.899-1.095-2.876-1.158c0.025-0.072,1.158,0.269,2.988,0.808
					c1.83,0.539,4.365,1.26,7.189,1.958c2.824,0.695,5.403,1.236,7.274,1.609C269.937,325.95,271.099,326.174,271.088,326.25z"/>
			</g>
		</g>
		<g>
			<path style="fill:#FFFFFF;" d="M266.016,172.419c0.094-0.28-2.636-4.667-2.636-4.667s5.903-6.253,9.45-6.067l3.367,4.667
				L266.016,172.419z"/>
			<path style="fill:#FF725E;" d="M293.935,192.068c-1.287-4.023-17.459-27.348-17.459-27.348c-5.955,0-11.773,7.229-11.773,7.229
				l11.487,24.197l-12.078,11.125l13.638,16.111c0,0,8.606-10.769,11.189-14.676C294.687,200.017,295.223,196.091,293.935,192.068z"
				/>
			<path style="opacity:0.3;" d="M215.408,301.76c0,0,1.354,8.987,8.872,11.65c7.518,2.663,24.894,0,24.894,0l2.02-6.549
				l2.157,7.732l26.872-3.445l-0.383-6.135l-28.48-11.83L215.408,301.76z"/>
			<path style="fill:#FF725E;" d="M274.017,271.812c-0.569-3.185-1.298-4.795-1.442-6.715c-0.429-5.725-0.394-19.469-0.003-21.23
				c0.512-2.304,5.179-20.486,5.179-20.486l-1.594-14.082l-19.844-3.343l-1.39-3.194c0,0-13.24-3.428-21.616,1.067l0,0l-1.449,3.421
				l-5.173,1.299c-0.777,0.311-4.831,1.435-7.899,2.272c-3.416,0.931-6.283,3.287-7.776,6.498c-0.462,0.994-0.932,2.161-1.393,3.531
				c-1.366,4.06-9.246,26.501-9.599,33.334c-0.413,7.988,6.674,8.273,10.973,7.255c4.179-0.989,9.069-10.698,9.07-10.699
				l2.717,18.934c0,0-0.572,4.001-1.891,7.601c-2.639,7.204-6.441,21.132-6.441,21.132c1.485,4.644,6.868,12.004,9.684,13.029
				c2.817,1.024,21.673,0.197,21.673,0.197l5.554-14.758l5.129,15.513l26.753-4.173L274.017,271.812z"/>
			<g>
				<path style="fill:#263238;" d="M251.358,266.348c0.076,0.122-3.774,2.667-8.599,5.685c-4.826,3.018-8.799,5.365-8.876,5.243
					c-0.076-0.122,3.773-2.667,8.6-5.685C247.308,268.574,251.282,266.226,251.358,266.348z"/>
			</g>
			<g>
				<path style="fill:#263238;" d="M244.316,274.128c0.077,0.122-4.017,2.844-9.142,6.081c-5.127,3.238-9.344,5.763-9.421,5.641
					c-0.077-0.122,4.016-2.844,9.143-6.082C240.021,276.532,244.239,274.007,244.316,274.128z"/>
			</g>
			<g>
				<path style="fill:#263238;" d="M265.473,252.93c0.118,0.052-1.018,2.503-3.213,4.973c-2.181,2.483-4.474,3.912-4.54,3.801
					c-0.095-0.127,2.017-1.716,4.15-4.145C264.017,255.143,265.335,252.851,265.473,252.93z"/>
			</g>
			<g>
				<path style="fill:#263238;" d="M266.011,255.456c0.06,0.031-0.26,0.809-0.9,2.006c-0.639,1.197-1.616,2.803-2.846,4.472
					c-1.232,1.668-2.479,3.076-3.434,4.039c-0.955,0.965-1.604,1.499-1.651,1.451c-0.112-0.112,2.236-2.491,4.666-5.8
					C264.29,258.328,265.872,255.383,266.011,255.456z"/>
			</g>
			<g>
				<path style="fill:#263238;" d="M266.628,279.989c-0.072-0.025,0.226-1.036,0.693-2.669c0.468-1.633,1.089-3.894,1.676-6.416
					c0.585-2.523,1.023-4.827,1.322-6.499c0.3-1.672,0.479-2.71,0.554-2.701c0.067,0.008,0.018,1.063-0.19,2.757
					c-0.207,1.693-0.591,4.023-1.179,6.562c-0.59,2.537-1.272,4.797-1.832,6.409C267.112,279.043,266.692,280.012,266.628,279.989z"
					/>
			</g>
			<g>
				<path style="fill:#263238;" d="M276.477,221.171c-0.138,0.079-1.915-2.999-4.607-6.432c-2.677-3.447-5.23-5.919-5.12-6.033
					c0.046-0.049,0.744,0.508,1.78,1.511c1.036,1.002,2.395,2.466,3.751,4.202c1.354,1.737,2.443,3.41,3.163,4.659
					C276.165,220.326,276.535,221.139,276.477,221.171z"/>
			</g>
			<g>
				<path style="fill:#263238;" d="M280.77,214.054c-0.142,0.09-1.356-2.368-3.957-4.367c-2.573-2.037-5.253-2.617-5.199-2.776
					c0.012-0.06,0.693,0,1.742,0.337c1.046,0.333,2.444,0.992,3.778,2.029c1.329,1.041,2.309,2.236,2.886,3.17
					C280.601,213.382,280.824,214.028,280.77,214.054z"/>
			</g>
			<g>
				<path style="fill:#263238;" d="M222.779,269.675c-0.142,0.02-1.745-10.327-3.579-23.109
					c-1.834-12.786-3.206-23.164-3.063-23.185c0.142-0.02,1.744,10.325,3.579,23.111
					C221.55,259.274,222.921,269.655,222.779,269.675z"/>
			</g>
			<g>
				<path style="fill:#263238;" d="M256.594,206.031c-0.008,0.079-1.403-0.019-3.657-0.105c-2.253-0.087-5.368-0.13-8.802,0.04
					c-3.435,0.173-6.53,0.526-8.764,0.837c-2.234,0.31-3.612,0.546-3.628,0.468c-0.007-0.035,0.329-0.136,0.944-0.287
					c0.615-0.155,1.512-0.343,2.626-0.545c2.228-0.406,5.339-0.819,8.796-0.993c3.456-0.17,6.592-0.069,8.849,0.113
					c1.129,0.09,2.04,0.188,2.667,0.281C256.253,205.929,256.597,205.995,256.594,206.031z"/>
			</g>
			<g style="opacity:0.3;">
				<path d="M220.165,251.456c-1.065-8.001-2.523-16.002-3.588-24.003C213.688,235.333,215.284,244.618,220.165,251.456z"/>
			</g>
			<g style="opacity:0.3;">
				<path d="M275.96,195.842c1.858-1.776,4.294-2.938,6.843-3.266c1.217-0.156,2.573-0.085,3.495,0.726
					c0.203,0.179,0.39,0.425,0.354,0.694c-0.036,0.269-0.295,0.464-0.561,0.518c-0.266,0.054-0.541-0.001-0.808-0.05
					c-3.068-0.559-6.4,0.348-9.313,1.463"/>
			</g>
			<g style="opacity:0.3;">
				<path d="M232.867,207.371c2.533,0.775,5.248,0.621,7.887,0.395c4.669-0.401,9.32-1.008,13.935-1.819
					c-7.419-1.005-15.029-0.575-22.287,1.257"/>
			</g>
			<g style="opacity:0.3;">
				<path d="M231.959,282.28c10.52-2.949,20.151-8.993,27.382-17.183C251.029,270.389,240.149,276.462,231.959,282.28z"/>
			</g>
			<g>
				<path style="fill:#263238;" d="M282.479,194.652c-0.032,0.155-1.658-0.274-3.563,0.283c-1.917,0.519-3.08,1.733-3.188,1.618
					c-0.047-0.042,0.175-0.408,0.69-0.864c0.511-0.455,1.34-0.967,2.357-1.255c1.018-0.285,1.991-0.281,2.665-0.159
					C282.116,194.395,282.497,194.592,282.479,194.652z"/>
			</g>
		</g>
	</g>
</g>
<g id="Speech_Bubble">
	<g>
		<g>
			<g>
				<g>
					<g>
						<g>
							<g>
								<path style="fill:#FFFFFF;" d="M184.493,183.08l-9.21,0.42c-2.898,3.441-6.722,6.138-11.244,7.627
									c-13.004,4.283-26.831-3.024-30.885-16.32c-4.054-13.297,3.202-27.548,16.205-31.832
									c13.004-4.283,26.831,3.024,30.885,16.321c1.693,5.552,1.408,11.269-0.439,16.358l0.008-0.012L184.493,183.08z"/>
								<g>
									<path style="fill:#263238;" d="M184.493,183.08c0,0-0.12-0.171-0.33-0.493c-0.221-0.34-0.528-0.812-0.924-1.422
										c-0.812-1.259-1.992-3.088-3.522-5.461l0.192,0.004l-0.008,0.011c-0.036,0.053-0.107,0.066-0.16,0.031
										c-0.044-0.03-0.06-0.087-0.043-0.135c1.09-3.09,1.954-7.366,1.247-12.326c-0.329-2.472-1.119-5.074-2.374-7.632
										c-1.252-2.556-3.023-5.064-5.35-7.218c-2.32-2.154-5.191-3.949-8.445-5.085c-3.248-1.137-6.878-1.612-10.541-1.197
										c-3.655,0.445-7.318,1.749-10.561,3.878c-1.646,1.033-3.108,2.359-4.501,3.765c-1.301,1.49-2.569,3.058-3.52,4.844
										c-1.027,1.721-1.721,3.592-2.334,5.456c-0.491,1.899-0.893,3.814-0.962,5.739c-0.218,3.84,0.442,7.63,1.801,11.02
										c2.7,6.847,8.365,11.74,14.271,13.838c5.951,2.169,12.009,1.653,16.628-0.121c4.677-1.768,7.99-4.635,10.135-7.151
										c0.021-0.026,0.054-0.04,0.085-0.042c2.962-0.103,5.244-0.182,6.815-0.236c0.764-0.024,1.354-0.042,1.779-0.055
										C184.274,183.079,184.493,183.08,184.493,183.08s-0.182,0.019-0.568,0.043c-0.415,0.025-0.993,0.06-1.741,0.105
										c-1.589,0.09-3.899,0.22-6.896,0.389l0.085-0.042c-2.132,2.566-5.457,5.501-10.19,7.328
										c-4.671,1.832-10.833,2.395-16.903,0.209c-3.017-1.077-5.966-2.819-8.513-5.203c-2.544-2.378-4.698-5.395-6.072-8.863
										c-1.393-3.454-2.072-7.318-1.852-11.237c0.07-1.964,0.477-3.918,0.978-5.855c0.623-1.902,1.332-3.81,2.379-5.566
										c0.971-1.821,2.264-3.422,3.594-4.942c1.421-1.436,2.916-2.788,4.597-3.842c3.313-2.171,7.054-3.497,10.787-3.944
										c3.741-0.417,7.447,0.077,10.755,1.246c3.316,1.167,6.235,3.007,8.588,5.21c2.36,2.203,4.15,4.762,5.408,7.366
										c1.262,2.606,2.046,5.25,2.361,7.758c0.681,5.033-0.236,9.35-1.376,12.452l-0.203-0.104l0.008-0.012
										c0.035-0.052,0.106-0.066,0.159-0.031c0.013,0.009,0.026,0.023,0.034,0.035c1.497,2.439,2.65,4.318,3.444,5.612
										c0.371,0.609,0.657,1.08,0.863,1.419C184.41,182.927,184.493,183.08,184.493,183.08z"/>
								</g>
							</g>
						</g>
					</g>
				</g>
			</g>
		</g>
		<g>
			<g>
				<polygon style="fill:#FF725E;" points="148.885,163.019 156.221,153.711 163.557,162.904 				"/>
			</g>
			<g>
				<polygon style="fill:#FF725E;" points="159.836,180.041 153.154,180.094 152.941,161.512 159.623,161.46 				"/>
			</g>
		</g>
	</g>
</g>
</svg>
